<?xml version="1.0" encoding="utf-8"?><svg xml:space="preserve" viewBox="0 0 100 100" y="0" x="0" xmlns="http://www.w3.org/2000/svg" id="Layer_1" version="1.1" width="79px" height="79px" xmlns:xlink="http://www.w3.org/1999/xlink" style="width:100%;height:100%;background-size:initial;background-repeat-y:initial;background-repeat-x:initial;background-position-y:initial;background-position-x:initial;background-origin:initial;background-image:initial;background-clip:initial;background-attachment:initial;animation-play-state:paused" ><g class="ldl-scale" style="transform-origin:50% 50%;transform:rotate(0deg) scale(1, 1);animation-play-state:paused" ><g style="animation-play-state:paused" ><path fill="#c33837" d="M53.5 88.8c-1.6 0-3-1.1-3.3-2.7l-12-57.4-7.5 27.1c-.4 1.5-1.7 2.5-3.2 2.5H5v-6.7h19.9l10.5-37.9c.4-1.5 1.8-2.5 3.4-2.5 1.6 0 2.9 1.2 3.2 2.7l11.8 56.6 9.4-37.6c.4-1.4 1.6-2.4 3-2.5 1.5-.1 2.8.7 3.4 2.1l7.8 19.2H95v6.7H75.1c-1.4 0-2.6-.8-3.1-2.1l-4.8-11.8-10.4 41.8c-.4 1.5-1.8 2.5-3.3 2.5z" style="fill:rgb(195, 56, 55);animation-play-state:paused" ></path></g>
</g><!-- generated by https://loading.io/ --></svg>